<?xml version="1.0" encoding="UTF-8" standalone="no"?>
<!-- Created with Inkscape (http://www.inkscape.org/) -->

<svg
   xmlns:dc="http://purl.org/dc/elements/1.1/"
   xmlns:cc="http://creativecommons.org/ns#"
   xmlns:rdf="http://www.w3.org/1999/02/22-rdf-syntax-ns#"
   xmlns:svg="http://www.w3.org/2000/svg"
   xmlns="http://www.w3.org/2000/svg"
   xmlns:sodipodi="http://sodipodi.sourceforge.net/DTD/sodipodi-0.dtd"
   xmlns:inkscape="http://www.inkscape.org/namespaces/inkscape"
   version="1.1"
   id="svg2"
   width="100"
   height="100"
   viewBox="0 0 100 100"
   sodipodi:docname="logo.svg"
   inkscape:version="0.92.4 (5da689c313, 2019-01-14)">
  <metadata
     id="metadata8">
    <rdf:RDF>
      <cc:Work
         rdf:about="">
        <dc:format>image/svg+xml</dc:format>
        <dc:type
           rdf:resource="http://purl.org/dc/dcmitype/StillImage" />
        <dc:title />
      </cc:Work>
    </rdf:RDF>
  </metadata>
  <defs
     id="defs6">
    <inkscape:path-effect
       effect="skeletal"
       id="path-effect962"
       is_visible="true"
       pattern="M 0,5 C 0,2.24 2.24,0 5,0 7.76,0 10,2.24 10,5 10,7.76 7.76,10 5,10 2.24,10 0,7.76 0,5 Z"
       copytype="single_stretched"
       prop_scale="1"
       scale_y_rel="false"
       spacing="0"
       normal_offset="0"
       tang_offset="0"
       prop_units="false"
       vertical_pattern="false"
       fuse_tolerance="0" />
    <inkscape:path-effect
       effect="spiro"
       id="path-effect960"
       is_visible="true" />
    <inkscape:path-effect
       effect="skeletal"
       id="path-effect956"
       is_visible="true"
       pattern="M 0,5 C 0,2.24 2.24,0 5,0 7.76,0 10,2.24 10,5 10,7.76 7.76,10 5,10 2.24,10 0,7.76 0,5 Z"
       copytype="single_stretched"
       prop_scale="1"
       scale_y_rel="false"
       spacing="0"
       normal_offset="0"
       tang_offset="0"
       prop_units="false"
       vertical_pattern="false"
       fuse_tolerance="0" />
    <inkscape:path-effect
       effect="spiro"
       id="path-effect954"
       is_visible="true" />
    <inkscape:path-effect
       effect="skeletal"
       id="path-effect942"
       is_visible="true"
       pattern="M 0,5 C 0,2.24 2.24,0 5,0 7.76,0 10,2.24 10,5 10,7.76 7.76,10 5,10 2.24,10 0,7.76 0,5 Z"
       copytype="single_stretched"
       prop_scale="1"
       scale_y_rel="false"
       spacing="0"
       normal_offset="0"
       tang_offset="0"
       prop_units="false"
       vertical_pattern="false"
       fuse_tolerance="0" />
    <inkscape:path-effect
       effect="spiro"
       id="path-effect940"
       is_visible="true" />
    <inkscape:path-effect
       effect="skeletal"
       id="path-effect936"
       is_visible="true"
       pattern="M 0,5 C 0,2.24 2.24,0 5,0 7.76,0 10,2.24 10,5 10,7.76 7.76,10 5,10 2.24,10 0,7.76 0,5 Z"
       copytype="single_stretched"
       prop_scale="1"
       scale_y_rel="false"
       spacing="0"
       normal_offset="0"
       tang_offset="0"
       prop_units="false"
       vertical_pattern="false"
       fuse_tolerance="0" />
    <inkscape:path-effect
       effect="spiro"
       id="path-effect934"
       is_visible="true" />
    <inkscape:path-effect
       effect="skeletal"
       id="path-effect930"
       is_visible="true"
       pattern="M 0,5 C 0,2.24 2.24,0 5,0 7.76,0 10,2.24 10,5 10,7.76 7.76,10 5,10 2.24,10 0,7.76 0,5 Z"
       copytype="single_stretched"
       prop_scale="1"
       scale_y_rel="false"
       spacing="0"
       normal_offset="0"
       tang_offset="0"
       prop_units="false"
       vertical_pattern="false"
       fuse_tolerance="0" />
    <inkscape:path-effect
       effect="spiro"
       id="path-effect928"
       is_visible="true" />
    <inkscape:path-effect
       effect="skeletal"
       id="path-effect924"
       is_visible="true"
       pattern="M 0,5 C 0,2.24 2.24,0 5,0 7.76,0 10,2.24 10,5 10,7.76 7.76,10 5,10 2.24,10 0,7.76 0,5 Z"
       copytype="single_stretched"
       prop_scale="1"
       scale_y_rel="false"
       spacing="0"
       normal_offset="0"
       tang_offset="0"
       prop_units="false"
       vertical_pattern="false"
       fuse_tolerance="0" />
    <inkscape:path-effect
       effect="spiro"
       id="path-effect922"
       is_visible="true" />
    <inkscape:path-effect
       effect="skeletal"
       id="path-effect860"
       is_visible="true"
       pattern="M 0,5 C 0,2.24 2.24,0 5,0 7.76,0 10,2.24 10,5 10,7.76 7.76,10 5,10 2.24,10 0,7.76 0,5 Z"
       copytype="single_stretched"
       prop_scale="1"
       scale_y_rel="false"
       spacing="0"
       normal_offset="0"
       tang_offset="0"
       prop_units="false"
       vertical_pattern="false"
       fuse_tolerance="0" />
    <inkscape:path-effect
       effect="spiro"
       id="path-effect858"
       is_visible="true" />
    <inkscape:path-effect
       effect="spiro"
       id="path-effect3911"
       is_visible="true" />
    <inkscape:path-effect
       effect="skeletal"
       id="path-effect3834"
       is_visible="true"
       pattern="M 0,5 C 0,2.24 2.24,0 5,0 7.76,0 10,2.24 10,5 10,7.76 7.76,10 5,10 2.24,10 0,7.76 0,5 Z"
       copytype="single_stretched"
       prop_scale="1"
       scale_y_rel="false"
       spacing="0"
       normal_offset="0"
       tang_offset="0"
       prop_units="false"
       vertical_pattern="false"
       fuse_tolerance="0" />
    <inkscape:path-effect
       effect="spiro"
       id="path-effect3832"
       is_visible="true" />
    <inkscape:path-effect
       effect="skeletal"
       id="path-effect3828"
       is_visible="true"
       pattern="M 0,5 C 0,2.24 2.24,0 5,0 7.76,0 10,2.24 10,5 10,7.76 7.76,10 5,10 2.24,10 0,7.76 0,5 Z"
       copytype="single_stretched"
       prop_scale="-0.68087951"
       scale_y_rel="false"
       spacing="0"
       normal_offset="0"
       tang_offset="0"
       prop_units="false"
       vertical_pattern="false"
       fuse_tolerance="0" />
    <inkscape:path-effect
       effect="spiro"
       id="path-effect3826"
       is_visible="true" />
    <inkscape:path-effect
       effect="skeletal"
       id="path-effect3820"
       is_visible="true"
       pattern="M 0,5 C 0,2.24 2.24,0 5,0 7.76,0 10,2.24 10,5 10,7.76 7.76,10 5,10 2.24,10 0,7.76 0,5 Z"
       copytype="single_stretched"
       prop_scale="1"
       scale_y_rel="false"
       spacing="0"
       normal_offset="0"
       tang_offset="0"
       prop_units="false"
       vertical_pattern="false"
       fuse_tolerance="0" />
    <inkscape:path-effect
       effect="spiro"
       id="path-effect3818"
       is_visible="true" />
    <inkscape:path-effect
       effect="skeletal"
       id="path-effect3814"
       is_visible="true"
       pattern="M 0,5 C 0,2.24 2.24,0 5,0 7.76,0 10,2.24 10,5 10,7.76 7.76,10 5,10 2.24,10 0,7.76 0,5 Z"
       copytype="single_stretched"
       prop_scale="1"
       scale_y_rel="false"
       spacing="0"
       normal_offset="0"
       tang_offset="0"
       prop_units="false"
       vertical_pattern="false"
       fuse_tolerance="0" />
    <inkscape:path-effect
       effect="spiro"
       id="path-effect3812"
       is_visible="true" />
    <inkscape:path-effect
       effect="skeletal"
       id="path-effect3808"
       is_visible="true"
       pattern="M 0,5 C 0,2.24 2.24,0 5,0 7.76,0 10,2.24 10,5 10,7.76 7.76,10 5,10 2.24,10 0,7.76 0,5 Z"
       copytype="single_stretched"
       prop_scale="1"
       scale_y_rel="false"
       spacing="0"
       normal_offset="0"
       tang_offset="0"
       prop_units="false"
       vertical_pattern="false"
       fuse_tolerance="0" />
    <inkscape:path-effect
       effect="spiro"
       id="path-effect3806"
       is_visible="true" />
    <inkscape:path-effect
       effect="skeletal"
       id="path-effect3802"
       is_visible="true"
       pattern="M 0,5 C 0,2.24 2.24,0 5,0 7.76,0 10,2.24 10,5 10,7.76 7.76,10 5,10 2.24,10 0,7.76 0,5 Z"
       copytype="single_stretched"
       prop_scale="1"
       scale_y_rel="false"
       spacing="0"
       normal_offset="0"
       tang_offset="0"
       prop_units="false"
       vertical_pattern="false"
       fuse_tolerance="0" />
    <inkscape:perspective
       sodipodi:type="inkscape:persp3d"
       inkscape:vp_x="0 : 50 : 1"
       inkscape:vp_y="0 : 1000 : 0"
       inkscape:vp_z="100 : 50 : 1"
       inkscape:persp3d-origin="50 : 33.333333 : 1"
       id="perspective3784" />
    <inkscape:path-effect
       effect="skeletal"
       id="path-effect3782"
       is_visible="true"
       pattern="M 0,5 C 0,2.24 2.24,0 5,0 7.76,0 10,2.24 10,5 10,7.76 7.76,10 5,10 2.24,10 0,7.76 0,5 Z"
       copytype="single_stretched"
       prop_scale="1"
       scale_y_rel="false"
       spacing="0"
       normal_offset="0"
       tang_offset="0"
       prop_units="false"
       vertical_pattern="false"
       fuse_tolerance="0" />
    <inkscape:path-effect
       effect="skeletal"
       id="path-effect3768"
       is_visible="true"
       pattern="M 0,5 C 0,2.24 2.24,0 5,0 7.76,0 10,2.24 10,5 10,7.76 7.76,10 5,10 2.24,10 0,7.76 0,5 Z"
       copytype="single_stretched"
       prop_scale="1"
       scale_y_rel="false"
       spacing="0"
       normal_offset="0"
       tang_offset="0"
       prop_units="false"
       vertical_pattern="false"
       fuse_tolerance="0" />
    <inkscape:path-effect
       effect="skeletal"
       id="path-effect3764"
       is_visible="true"
       pattern="M 0,5 C 0,2.24 2.24,0 5,0 7.76,0 10,2.24 10,5 10,7.76 7.76,10 5,10 2.24,10 0,7.76 0,5 Z"
       copytype="single_stretched"
       prop_scale="1"
       scale_y_rel="false"
       spacing="0"
       normal_offset="0"
       tang_offset="0"
       prop_units="false"
       vertical_pattern="false"
       fuse_tolerance="0" />
    <inkscape:path-effect
       effect="skeletal"
       id="path-effect3760"
       is_visible="true"
       pattern="M 0,5 C 0,2.24 2.24,0 5,0 7.76,0 10,2.24 10,5 10,7.76 7.76,10 5,10 2.24,10 0,7.76 0,5 Z"
       copytype="single_stretched"
       prop_scale="1"
       scale_y_rel="false"
       spacing="0"
       normal_offset="0"
       tang_offset="0"
       prop_units="false"
       vertical_pattern="false"
       fuse_tolerance="0" />
    <inkscape:path-effect
       effect="skeletal"
       id="path-effect3756"
       is_visible="true"
       pattern="M 0,5 C 0,2.24 2.24,0 5,0 7.76,0 10,2.24 10,5 10,7.76 7.76,10 5,10 2.24,10 0,7.76 0,5 Z"
       copytype="single_stretched"
       prop_scale="1"
       scale_y_rel="false"
       spacing="0"
       normal_offset="0"
       tang_offset="0"
       prop_units="false"
       vertical_pattern="false"
       fuse_tolerance="0" />
    <inkscape:path-effect
       effect="skeletal"
       id="path-effect3752"
       is_visible="true"
       pattern="M 0,5 C 0,2.24 2.24,0 5,0 7.76,0 10,2.24 10,5 10,7.76 7.76,10 5,10 2.24,10 0,7.76 0,5 Z"
       copytype="single_stretched"
       prop_scale="1"
       scale_y_rel="false"
       spacing="0"
       normal_offset="0"
       tang_offset="0"
       prop_units="false"
       vertical_pattern="false"
       fuse_tolerance="0" />
    <inkscape:path-effect
       effect="spiro"
       id="path-effect3733"
       is_visible="true" />
    <inkscape:path-effect
       effect="spiro"
       id="path-effect3729"
       is_visible="true" />
    <inkscape:path-effect
       effect="skeletal"
       id="path-effect3725"
       is_visible="true"
       pattern="M 0,5 C 0,2.24 2.24,0 5,0 7.76,0 10,2.24 10,5 10,7.76 7.76,10 5,10 2.24,10 0,7.76 0,5 Z"
       copytype="single_stretched"
       prop_scale="1"
       scale_y_rel="false"
       spacing="0"
       normal_offset="0"
       tang_offset="0"
       prop_units="false"
       vertical_pattern="false"
       fuse_tolerance="0" />
    <inkscape:path-effect
       effect="spiro"
       id="path-effect3723"
       is_visible="true" />
    <inkscape:path-effect
       effect="skeletal"
       id="path-effect3719"
       is_visible="true"
       pattern="M 0,5 C 0,2.24 2.24,0 5,0 7.76,0 10,2.24 10,5 10,7.76 7.76,10 5,10 2.24,10 0,7.76 0,5 Z"
       copytype="single_stretched"
       prop_scale="1"
       scale_y_rel="false"
       spacing="0"
       normal_offset="0"
       tang_offset="0"
       prop_units="false"
       vertical_pattern="false"
       fuse_tolerance="0" />
    <inkscape:path-effect
       effect="spiro"
       id="path-effect3717"
       is_visible="true" />
  </defs>
  <sodipodi:namedview
     pagecolor="#ffffff"
     bordercolor="#666666"
     borderopacity="1"
     objecttolerance="10"
     gridtolerance="10"
     guidetolerance="10"
     inkscape:pageopacity="0"
     inkscape:pageshadow="2"
     inkscape:window-width="1366"
     inkscape:window-height="554"
     id="namedview4"
     showgrid="false"
     inkscape:snap-smooth-nodes="true"
     inkscape:zoom="5.4760587"
     inkscape:cx="33.817571"
     inkscape:cy="55.400736"
     inkscape:window-x="0"
     inkscape:window-y="31"
     inkscape:window-maximized="1"
     inkscape:current-layer="svg2" />
  <path
     style="fill:#ffcc00;fill-opacity:0.22631579"
     id="path3842"
     d="m 58.000955,10.14657 c 0.280347,0.0065 0.133903,0.004 0.43934,0.0068 0,0 -2.223179,1.615234 -2.223179,1.615234 v 0 c -0.315642,0.0028 -0.162959,3.95e-4 -0.458054,0.0068 0,0 2.241893,-1.62883 2.241893,-1.62883 z"
     inkscape:connector-curvature="0" />
  <path
     sodipodi:type="spiral"
     style="fill:#55d400;fill-rule:evenodd;stroke:#000000"
     id="path862"
     sodipodi:cx="35.129116"
     sodipodi:cy="41.952652"
     sodipodi:expansion="1"
     sodipodi:revolution="3"
     sodipodi:radius="11.053302"
     sodipodi:argument="-18.949224"
     sodipodi:t0="0"
     d="m 35.129116,41.952652 c 0.551445,-0.05514 0.346397,0.71613 0.09165,0.916537 -0.690339,0.543091 -1.627682,-0.04572 -1.924728,-0.73323 -0.531347,-1.22979 0.372606,-2.554771 1.558113,-2.932919 1.73978,-0.554946 3.497838,0.69977 3.94111,2.382997 0.590811,2.243479 -1.026486,4.447023 -3.207881,4.949301 -2.745062,0.632066 -5.399231,-1.352858 -5.957491,-4.032764 -0.676129,-3.245726 1.679008,-6.353165 4.857648,-6.965682 3.745916,-0.721831 7.308177,2.005016 7.973873,5.682531 0.768572,4.245836 -2.33093,8.26391 -6.507415,8.982064 -4.745588,0.816012 -9.220148,-2.656778 -9.990255,-7.332299 -0.863944,-5.245227 2.98258,-10.176752 8.157182,-10.998445 5.744789,-0.912235 11.133634,3.308347 12.006637,8.982065" />
  <path
     sodipodi:type="spiral"
     style="fill:#55d400;fill-rule:evenodd;stroke:#000000"
     id="path864"
     sodipodi:cx="39.472198"
     sodipodi:cy="43.877377"
     sodipodi:expansion="1"
     sodipodi:revolution="3"
     sodipodi:radius="7.9019108"
     sodipodi:argument="-18.187496"
     sodipodi:t0="0"
     d="m 39.472198,43.877377 c 0.312486,0.243554 -0.174137,0.541385 -0.404803,0.519371 -0.625091,-0.05966 -0.819485,-0.826749 -0.633939,-1.328978 0.331897,-0.89837 1.45328,-1.137809 2.253153,-0.748507 1.173845,0.571316 1.464261,2.087839 0.863075,3.177328 -0.801287,1.452117 -2.725185,1.794098 -4.101503,0.977642 -1.731956,-1.027426 -2.12567,-3.363844 -1.09221,-5.025678 1.251657,-2.012702 4.00324,-2.458243 5.949852,-1.206778 2.294015,1.474809 2.791445,4.643096 1.321346,6.874028 -1.697288,2.575699 -5.283257,3.125066 -7.798202,1.435913 -2.857641,-1.919322 -3.458981,-5.923633 -1.550482,-8.722377 2.141048,-3.139767 6.564168,-3.793108 9.646552,-1.665049 3.422031,2.362549 4.127396,7.20482 1.779617,10.570727"
     transform="matrix(1.0448787,0,0,1,-4.6915385,0.68740569)" />
  <path
     style="fill:#44aa00;stroke:none;stroke-width:1px;stroke-linecap:butt;stroke-linejoin:miter;stroke-opacity:1;fill-opacity:0.97894734"
     d="m 29.970765,19.986305 c 1.312922,-0.687954 3.700113,0.896983 6.224471,0.798402 1.153947,-0.02968 2.516218,-0.374223 3.468323,-1.040684 0.782,-0.520497 1.570569,-1.408764 1.958192,-2.305253 0.0034,-0.0079 0.0068,-0.01585 0.01018,-0.02377 0.409142,-0.89444 0.535628,-2.090824 0.390564,-3.029146 -0.150664,-1.147234 -0.806768,-2.376547 -1.555293,-3.248007 0,0 -10e-7,0 -10e-7,0 -1.613666,-1.9282599 -4.360576,-2.6448597 -4.722254,-4.0747154 -0.1777,-0.7025166 1.931757,-4.6781345 8.246447,-2.4702167 0,6e-7 1e-6,6e-7 1e-6,6e-7 2.626192,0.9352398 5.416522,3.0932803 6.922978,6.6958605 1.244878,3.03659 1.378829,6.676163 -0.124731,10.143116 -0.0131,0.0296 -0.0263,0.05915 -0.03961,0.08865 -1.536634,3.40621 -4.280014,5.74642 -7.334078,6.882862 -3.706334,1.349311 -7.21985,0.741779 -9.706104,-0.584075 -5.954763,-3.221038 -4.369822,-7.502527 -3.739088,-7.833024 z"
     id="path920"
     inkscape:connector-curvature="0"
     inkscape:path-effect="#path-effect922;#path-effect924"
     inkscape:original-d="m 29.970765,19.986305 c 5.500223,-2.383997 10.999446,-4.766993 16.49767,-7.14899 5.498223,-2.381996 -7.14799,-3.850456 -10.723485,-5.774184"
     transform="matrix(0.77891084,0,0,0.93824719,8.6509487,-1.4397205)" />
  <path
     style="fill:#44aa00;stroke:none;stroke-width:1px;stroke-linecap:butt;stroke-linejoin:miter;stroke-opacity:1;fill-opacity:0.9894737"
     d="m 53.067502,31.809635 c 1.291555,-0.549446 3.225167,0.773369 5.384518,1.045366 0,-1e-6 1e-6,0 1e-6,0 0.988767,0.130936 2.117542,0.09778 3.063716,-0.198772 0.77434,-0.232888 1.60608,-0.669831 2.213775,-1.208589 0.178466,-0.153596 0.352991,-0.327713 0.519142,-0.516796 0.378776,-0.431056 0.703136,-0.92686 0.925497,-1.409617 0.497739,-1.009323 0.645419,-2.428378 0.504063,-3.562896 -0.13185,-1.243397 -0.708042,-2.500007 -1.187937,-3.527514 -0.478588,-1.024709 -0.922988,-1.947048 -0.699297,-2.719475 0.196361,-0.678051 4.498077,-3.448244 8.904514,2.481619 1.815882,2.48249 2.903152,6.180959 1.810619,10.255314 -0.505442,1.840094 -1.427438,3.59586 -2.76529,5.106436 -0.582565,0.657778 -1.227237,1.249919 -1.9221,1.771293 -2.442264,1.817277 -5.238572,2.577146 -7.8517,2.506367 -3.151927,-0.09728 -5.666767,-1.378398 -7.31771,-2.908142 0,0 -10e-7,-10e-7 -10e-7,-10e-7 -3.84389,-3.583845 -2.471933,-6.735922 -1.58181,-7.114593 z"
     id="path926"
     inkscape:connector-curvature="0"
     inkscape:path-effect="#path-effect928;#path-effect930"
     inkscape:original-d="m 53.067502,31.809635 c 5.591877,-0.275962 11.182754,-0.550923 16.77263,-0.824884 5.589877,-0.273961 -4.031763,-7.516605 -6.049145,-11.273407"
     transform="matrix(0.93546713,-0.26516988,0.29058296,1.0251195,-12.23002,8.8255815)" />
  <path
     style="fill:#448c00;stroke:none;stroke-width:1px;stroke-linecap:butt;stroke-linejoin:miter;stroke-opacity:1;fill-opacity:0.98421055"
     d="m 64.61587,51.881799 c 0.830726,-0.538434 2.167687,-0.249093 3.585899,-0.04398 1.423948,0.205939 3.229185,0.38498 4.662936,-0.03817 1.002267,-0.249492 2.13935,-0.82562 3.077342,-1.567654 0.408374,-0.323061 0.764704,-0.668122 1.046608,-1.023729 0.769624,-0.913634 1.344408,-2.172964 1.641061,-3.313487 0.333082,-1.229827 0.35806,-2.544852 0.40853,-3.676667 0.04972,-1.115 0.126894,-2.123231 0.700482,-2.709566 0.718054,-0.734012 5.158554,-0.848401 6.900628,5.496273 0.740196,2.744509 0.557246,6.249045 -1.400931,9.550521 -0.790087,1.298724 -1.801065,2.472861 -3.009386,3.456329 -2.830506,2.303785 -6.244642,3.17711 -9.364334,2.919261 -4.396642,-0.430845 -7.127544,-2.925095 -8.253021,-4.92059 -1.183306,-2.098029 -0.797867,-3.608688 0.0042,-4.128537 z"
     id="path938"
     inkscape:connector-curvature="0"
     inkscape:path-effect="#path-effect940;#path-effect942"
     inkscape:original-d="m 64.61587,51.881799 c 5.316916,-10e-4 10.999447,-10e-4 16.49767,0 5.498223,10e-4 -0.915538,-8.249835 -1.374806,-12.373252"
     transform="matrix(0.94710181,0,0,1.0283563,0.18802853,-10.461383)" />
  <path
     style="fill:#005e00;fill-opacity:1;stroke:none;stroke-width:1px;stroke-linecap:butt;stroke-linejoin:miter;stroke-opacity:1"
     d="m 88.812452,73.328768 c 0.01852,0.335853 -0.719111,0.785727 -2.256915,1.037681 C 83.212948,74.898441 74.943361,74.277464 67.209152,66.489987 62.647089,61.930518 59.084113,56.085624 55.984799,48.79995 53.47589,43.013094 51.370466,36.719589 48.450995,30.795139 c 0,1e-6 -3e-6,-6e-6 -3e-6,-6e-6 -2.614978,-5.196232 -5.92458,-10.477976 -10.48441,-13.810091 -3.048446,-2.228092 -6.669676,-3.886352 -10.147596,-3.863791 -1.445386,-0.01689 -2.894727,0.186981 -4.201392,0.647765 -0.220764,0.07785 -0.436957,0.162863 -0.647943,0.255125 -1.459638,0.635839 -2.767874,1.585137 -3.661655,2.728824 -1.771163,2.032099 -2.312703,5.371315 -1.893082,8.312502 0.450258,3.179734 2.323856,6.284985 4.620745,8.858239 4.828861,5.558148 13.743769,9.033466 20.522872,12.323433 2e-6,2e-6 4e-6,3e-6 5e-6,4e-6 23.431124,11.035285 35.717898,22.400128 34.980512,23.507132 -0.918439,1.378809 -15.01065,-7.160598 -38.159151,-16.08727 0,0 -6e-6,-2e-6 -6e-6,-2e-6 C 32.546254,51.124662 22.741041,47.747061 15.232197,40.445159 11.738056,36.977365 8.8886144,32.322434 7.782912,26.784278 6.7215939,21.428592 7.7942982,15.45292 11.487652,10.571433 c 2.01492,-2.5361471 4.617939,-4.4993618 7.5508,-5.7416152 0.420289,-0.1776515 0.844858,-0.3412926 1.273045,-0.4909564 2.535443,-0.8862098 5.160776,-1.2696179 7.728567,-1.1975961 6.173783,0.2365989 11.690299,2.6740125 15.931779,6.0982467 6.229355,5.033919 10.213402,11.582248 12.824216,17.701178 0,0 3e-6,7e-6 3e-6,7e-6 2.727667,6.267623 4.968039,13.923254 6.711408,18.907715 2.518296,7.036353 4.893904,12.204084 8.308808,16.477739 5.756091,7.153256 11.653091,9.006275 14.853711,9.964936 1.348096,0.410543 2.121954,0.665793 2.142463,1.037681 z"
     id="path856"
     inkscape:connector-curvature="0"
     inkscape:path-effect="#path-effect858;#path-effect860"
     inkscape:original-d="m 88.812452,73.328768 c -0.73223,-10e-4 13.013828,20.073164 -2.199689,0 C 71.399246,53.255604 49.492007,12.929969 40.969211,13.112276 32.446416,13.294584 23.92262,13.477891 15.397824,13.662199 6.8730283,13.846507 32.446415,37.85778 40.969211,49.957071 49.492007,62.056362 65.3501,63.154206 77.539045,69.754273"
     transform="matrix(0.94623879,-0.30194244,0.32156192,1.0077231,-8.688835,21.057165)" />
  <text
     xml:space="preserve"
     style="font-style:normal;font-weight:normal;font-size:40px;line-height:1.25;font-family:sans-serif;letter-spacing:0px;word-spacing:0px;fill:#000000;fill-opacity:1;stroke:none"
     x="23.096737"
     y="76.078377"
     id="text946"><tspan
       sodipodi:role="line"
       id="tspan944"
       x="23.096737"
       y="111.469"
       style="font-size:5.33333349px" /></text>
  <text
     xml:space="preserve"
     style="font-style:normal;font-weight:normal;font-size:40px;line-height:1.25;font-family:sans-serif;letter-spacing:0px;word-spacing:0px;fill:#000000;fill-opacity:1;stroke:none"
     x="49.767967"
     y="74.978539"
     id="text950"><tspan
       sodipodi:role="line"
       id="tspan948"
       x="49.767967"
       y="110.36916" /></text>
  <path
     style="fill:#ffff04;fill-opacity:0.78857141;stroke-width:1"
     id="path87"
     sodipodi:type="arc"
     sodipodi:cx="-89.548103"
     sodipodi:cy="3.0899503"
     sodipodi:rx="4.9427624"
     sodipodi:ry="4.6318464"
     sodipodi:start="0.38860569"
     sodipodi:end="5.5871829"
     d="m -84.973882,4.8449497 a 4.9427624,4.6318464 0 0 1 -5.153433,2.8449348 4.9427624,4.6318464 0 0 1 -4.305284,-3.8908266 4.9427624,4.6318464 0 0 1 2.847166,-4.9291848 4.9427624,4.6318464 0 0 1 5.830462,1.25034563 l -3.793132,2.96973157 z"
     transform="rotate(-135.80664)" />
</svg>
